# xmcd
#
# Track frame offsets:
#	182
#	14290
#	35285
#	45535
#	59902
#	77920
#	87505
#	105192
#	120925
#	134837
#	156202
#	172520
#	187592
#
# Disc length: 2744 seconds
#
# Revision: 7
# Processed by: cddbd v1.5.2PL0 Copyright (c) Steve Scherf et al.
# Submitted via: audiograbber 1.83.01
#
DISCID=980ab60d
DTITLE=Vince Gill - The Key
DYEAR=1998
DGENRE=Country
TTITLE0=Don't Come Cryin' To Me
TTITLE1=If You Ever Have Forever In Mind
TTITLE2=I Never Really Knew You
TTITLE3=Kindly Keep It Country
TTITLE4=All Those Years
TTITLE5=I'll Take Texas
TTITLE6=My Kind Of Woman - My Kind Of Man ( A Duet With Patty Loveless)
TTITLE7=There's Not Much Love Here Anymore
TTITLE8=Let Her In
TTITLE9=The Hills Of Caroline
TTITLE10=Live To Tell It All
TTITLE11=What They All Call Love
TTITLE12=The Key To Life
EXTD=
EXTT0=
EXTT1=
EXTT2=
EXTT3=
EXTT4=
EXTT5=
EXTT6=
EXTT7=
EXTT8=
EXTT9=
EXTT10=
EXTT11=
EXTT12=
PLAYORDER=
